<svg width="96" height="96" viewBox="0 0 96 96" fill="none" xmlns="http://www.w3.org/2000/svg">
  <rect x="2" y="2" width="92" height="92" rx="24" fill="#F8F2E8"/>
  <path d="M48 69C39 61 24 50 20 38C17 30 21 22 29 20C36 18 42 21 47 27C52 21 59 18 66 20C74 22 79 30 76 39C72 50 57 61 48 69Z" stroke="#2F4155" stroke-width="3" stroke-linecap="round" stroke-linejoin="round"/>
  <path d="M34 30C37 28 42 28 45 31" stroke="#2F4155" stroke-width="2" stroke-linecap="round" opacity="0.7"/>
  <path d="M57 25C60 24 64 25 66 28" stroke="#2F4155" stroke-width="2" stroke-linecap="round" opacity="0.7"/>
  <circle cx="25" cy="63" r="2" fill="#D6B370"/>
  <circle cx="70" cy="62" r="2" fill="#D6B370"/>
</svg>
