<svg width="96" height="96" viewBox="0 0 96 96" fill="none" xmlns="http://www.w3.org/2000/svg">
  <rect x="2" y="2" width="92" height="92" rx="24" fill="#F8F2E8"/>
  <path d="M48 68V42" stroke="#2F4155" stroke-width="3" stroke-linecap="round"/>
  <path d="M48 43C36 37 30 29 30 22C39 22 45 25 48 31" stroke="#2F4155" stroke-width="3" stroke-linecap="round" stroke-linejoin="round"/>
  <path d="M48 43C60 37 66 29 66 22C57 22 51 25 48 31" stroke="#2F4155" stroke-width="3" stroke-linecap="round" stroke-linejoin="round"/>
  <path d="M40 70C44 68 52 68 56 70" stroke="#2F4155" stroke-width="2.4" stroke-linecap="round"/>
  <path d="M30 22C32 20 36 20 38 22" stroke="#2F4155" stroke-width="1.8" stroke-linecap="round" opacity="0.6"/>
  <path d="M58 22C60 20 64 20 66 22" stroke="#2F4155" stroke-width="1.8" stroke-linecap="round" opacity="0.6"/>
</svg>
