<svg width="96" height="96" viewBox="0 0 96 96" fill="none" xmlns="http://www.w3.org/2000/svg">
  <rect x="2" y="2" width="92" height="92" rx="24" fill="#F8F2E8"/>
  <path d="M48 26C53 35 40 40 40 50C40 58 46 64 54 64C63 64 70 57 70 48C70 41 65 35 61 30" stroke="#2F4155" stroke-width="3" stroke-linecap="round" stroke-linejoin="round"/>
  <path d="M56 38C53 42 50 45 50 50C50 54 53 57 57 57C61 57 64 54 64 50C64 46 61 42 58 39" stroke="#2F4155" stroke-width="2.4" stroke-linecap="round" stroke-linejoin="round"/>
  <path d="M33 68C40 66 56 66 63 68" stroke="#2F4155" stroke-width="2.4" stroke-linecap="round"/>
  <circle cx="31" cy="30" r="2" fill="#D6B370"/>
  <circle cx="66" cy="26" r="2" fill="#D6B370"/>
</svg>
